<?xml version="1.0" encoding="utf-8"?>
<!-- Generator: Adobe Illustrator 22.0.1, SVG Export Plug-In . SVG Version: 6.00 Build 0)  -->
<svg version="1.1" id="Layer_1" xmlns="http://www.w3.org/2000/svg" xmlns:xlink="http://www.w3.org/1999/xlink" x="0px" y="0px"
	 viewBox="0 0 17 21.8" style="enable-background:new 0 0 17 21.8;" xml:space="preserve">
<style type="text/css">
	.st0{fill:#FFFFFF;}
	.st1{fill:#2E253D;}
</style>
<g>
	<path class="st0" d="M1,21V0.8h9.3l5.8,5.8V21H1z M13.4,7.3L9.6,3.5v3.8H13.4z"/>
	<path class="st1" d="M10.1,1.3l5.5,5.5v13.7H1.5V1.3H10.1 M9.1,7.8h5.5L9.1,2.3V7.8 M4.6,11.9h8.1v-1H4.6V11.9 M4.6,15h8.1v-1H4.6
		V15 M4.6,18.1H10v-1H4.6V18.1 M10.5,0.3h-0.4H1.5h-1v1v19.2v1h1h14.1h1v-1V6.8V6.4l-0.3-0.3l-5.5-5.5L10.5,0.3L10.5,0.3z M10.1,6.8
		V4.7l2.1,2.1H10.1L10.1,6.8z"/>
</g>
</svg>
