<?xml version="1.0" encoding="utf-8"?>
<!-- Generator: Adobe Illustrator 22.0.1, SVG Export Plug-In . SVG Version: 6.00 Build 0)  -->
<svg version="1.1" id="Layer_1" xmlns="http://www.w3.org/2000/svg" xmlns:xlink="http://www.w3.org/1999/xlink" x="0px" y="0px"
	 viewBox="0 0 1338.3 319.4" style="enable-background:new 0 0 1338.3 319.4;" xml:space="preserve">
<style type="text/css">
	.st0{fill:none;}
	.st1{fill:#AE99C8;}
	.st2{fill:url(#SVGID_1_);}
	.st3{fill:#FFFFFF;stroke:#2E253D;stroke-width:4;stroke-miterlimit:10;}
	.st4{fill:#BFB8CC;}
	.st5{fill:#2E253D;}
</style>
<pattern  y="319.4" width="10" height="10" patternUnits="userSpaceOnUse" id="New_Pattern" viewBox="0 -10 10 10" style="overflow:visible;">
	<g>
		<rect y="-10" class="st0" width="10" height="10"/>
		<g>
			<rect y="-10" class="st1" width="2.8" height="2.8"/>
			<rect x="5.2" y="-5" class="st1" width="2.8" height="2.8"/>
		</g>
	</g>
</pattern>
<pattern  id="SVGID_1_" xlink:href="#New_Pattern" patternTransform="matrix(1 0 0 1 -2.3 -12.2)">
</pattern>
<path class="st2" d="M2.2,0c0,0,746.3,238.7,997.3,319.4l51.5-23l75.1,23L1323.3,0.7L2.2,0z"/>
<path class="st3" d="M1192.7,27.9c-2.2,2.9-141.4,268.5-178.4,268.5C1002.6,278.5,14.7,0.7,14.7,0.7L1192.7,27.9z"/>
<path class="st3" d="M1323.3,0.7c-2.1,3-216.5,305.3-216.5,305.3L43,0.7H1323.3z"/>
<polygon class="st3" points="1314.3,0.7 1123.9,293.5 16.3,0.7 "/>
<path class="st3" d="M1314.3,0.7c0,0-176,262.7-221,287.4C846.3,197.5,399.1,79.4,21.7,0.7C-10.3-6,1314.3,0.7,1314.3,0.7z"/>
<path class="st3" d="M1307.1,0.7c0,0-225.7,263.7-244.7,282.7c-145-82-650-197.4-1026-282.7L1307.1,0.7L1307.1,0.7z"/>
<path class="st3" d="M1310.3,0.7c0,0-178.7,233.4-190.7,257.4C878.3,203.4,27.7,0.7,27.7,0.7H1310.3z"/>
<path class="st3" d="M1301.9,0.7c0,0-185.2,216.3-201.2,238c-65.3-35-1050.4-238-1050.4-238S1301.9,0.7,1301.9,0.7z"/>
<polygon class="st4" points="1095.4,134.6 1161.2,63.1 1182.1,64 1115,137 "/>
<polygon class="st4" points="1038.8,196.7 1090.1,141 1106.3,146.4 1057.4,199.5 "/>
<polygon class="st4" points="1004.2,188.4 1079.1,107.1 1097.7,110.5 1022.7,191.9 "/>
<polygon class="st4" points="879.2,152.3 913.4,114.4 935,118.9 897.8,155.8 "/>
<polygon class="st4" points="922.8,103.6 959.6,60.6 978.2,64.1 941.3,107.1 "/>
<polygon class="st4" points="968.3,50.2 1008.2,3.7 1030.7,3.7 986.8,53.7 "/>
<polygon class="st4" points="910.6,73.4 947.5,30.4 966,33.9 929.1,76.9 "/>
<polygon class="st4" points="854.4,134.4 900.5,79.6 919.1,83.1 872.9,137.9 "/>
<polygon class="st4" points="842.4,87.4 898.5,24.6 917.1,28.1 860.9,90.9 "/>
<polygon class="st5" points="732.4,119.4 838.6,1 873.7,0.9 764.1,126.1 "/>
<polygon class="st5" points="705.4,112.4 813.2,2.1 836.2,1.1 723.9,115.9 "/>
<polygon class="st5" points="665.4,100.4 760.6,2.7 800.4,2.7 700.4,105.4 "/>
<polygon class="st5" points="618.4,98.4 711.6,2.7 748.5,2.7 649.9,103.9 "/>
<polygon class="st4" points="602.4,51.4 649.4,1.9 671.2,1.9 620.9,54.9 "/>
<polygon class="st4" points="565.7,84.8 592.4,60.4 611,63.9 584.2,88.3 "/>
<polygon class="st4" points="533.4,58.4 582.8,2.3 611.9,2.5 560.1,61 "/>
<polygon class="st4" points="907.1,13.1 918.1,2.2 939.4,2.7 925.6,16.6 "/>
<polygon class="st4" points="950.5,21.7 964.3,1.8 985.8,2.2 969,25.2 "/>
<polygon class="st4" points="522.5,21.7 540.3,1.8 561.8,2.2 541,25.2 "/>
<polygon class="st4" points="477.7,66.3 516.2,29.3 533.4,32.9 496.2,69.8 "/>
<polygon class="st4" points="460,38.1 495.5,3.1 515.8,3.7 478.5,41.6 "/>
<polygon class="st4" points="400.8,47.8 448.5,3.1 468.8,3.7 419.3,51.3 "/>
<polygon class="st4" points="395.4,10.7 405.2,1.8 426.8,2.2 413.9,14.2 "/>
<polygon class="st4" points="362.4,39.7 389.1,15.4 407.7,18.9 380.9,43.3 "/>
</svg>
